<svg xmlns="http://www.w3.org/2000/svg" viewBox="0 0 1246.08 82.65"><title>HAM-LOGO_web</title><path d="M1202.32,31.15h-3.26l-8.14,14-8.13-14h-3.25a8.88,8.88,0,0,0-8.87,8.87V57.75a8.87,8.87,0,0,0,7.6,8.76V88.15h25.32V66.53a8.88,8.88,0,0,0,7.61-8.77V40A8.88,8.88,0,0,0,1202.32,31.15ZM1178.26,64a6.33,6.33,0,0,1-5.06-6.19V40a6.25,6.25,0,0,1,1-3.37l4.07,11.19Zm22.81-16.54V85.62h-8.89V71.69h-2.53V85.62h-8.86V47.41l-4.62-12.72a8.93,8.93,0,0,1,5.16-1l9.6,16.44,9.6-16.44s3.69-.3,5.16,1Zm7.59,10.34a6.34,6.34,0,0,1-5.07,6.2V47.86l4.07-11.2a6.12,6.12,0,0,1,1,3.36Z" transform="translate(-11.92 -10.52)" style="fill:#f83f5a"/><path d="M1204,88.51h-26V66.82a9.27,9.27,0,0,1-7.6-9.07V40a9.27,9.27,0,0,1,9.23-9.24H1183l7.93,13.6,7.93-13.6h3.47a9.25,9.25,0,0,1,9.24,9.24V57.76a9.29,9.29,0,0,1-7.61,9.08Zm-25.31-.72h24.59V66.21l.31,0a8.54,8.54,0,0,0,7.29-8.41V40a8.52,8.52,0,0,0-8.51-8.51h-3l-8.35,14.31-8.34-14.31h-3A8.54,8.54,0,0,0,1171,40V57.75a8.54,8.54,0,0,0,7.29,8.4l.32,0ZM1201.43,86h-9.61V72.05H1190V86h-9.58V47.47l-4.7-12.93.24-.16a9.21,9.21,0,0,1,5.41-1l.18,0,9.37,16.06,9.38-16.07h.19c.16,0,3.87-.29,5.43,1.07l.19.17-4.69,12.89Zm-8.88-.73h8.16l0-38,4.53-12.47c-1.25-.85-3.8-.8-4.51-.76l-9.82,16.81L1181.11,34a8.7,8.7,0,0,0-4.5.8l4.54,12.57V85.25h8.14V71.33h3.26Zm10.68-20.86,0-16.66,4.31-11.87.4.61A6.37,6.37,0,0,1,1209,40V57.75a6.71,6.71,0,0,1-5.36,6.55Zm.72-16.47V63.48a6,6,0,0,0,4.35-5.73V40a5.83,5.83,0,0,0-.57-2.5Zm-25.33,16.47-.43-.09a6.67,6.67,0,0,1-5.35-6.54V40a6.55,6.55,0,0,1,1.05-3.56l.39-.63,4.34,12Zm-4.5-26.87a6,6,0,0,0-.55,2.5V57.76a6,6,0,0,0,4.32,5.73V47.9Z" transform="translate(-11.92 -10.52)" style="fill:#f83f5a"/><path d="M1191,12.82a8.91,8.91,0,1,0,8.91,8.91A8.9,8.9,0,0,0,1191,12.82Zm0,15.6a6.69,6.69,0,1,1,6.69-6.69A6.71,6.71,0,0,1,1191,28.42Z" transform="translate(-11.92 -10.52)" style="fill:#f83f5a"/><path d="M1191,31a9.25,9.25,0,0,1-9.24-9.24,9.22,9.22,0,0,1,9.22-9.21h0A9.23,9.23,0,1,1,1191,31Zm0-17.81a8.59,8.59,0,0,0-8.58,8.57,8.6,8.6,0,1,0,8.6-8.57h0Zm0,15.6a7,7,0,1,1,7-7A7,7,0,0,1,1191,28.74Zm0-13.39a6.38,6.38,0,1,0,6.37,6.38A6.38,6.38,0,0,0,1191,15.35Z" transform="translate(-11.92 -10.52)" style="fill:#f83f5a"/><path d="M1216.35,28.08V31a20.39,20.39,0,1,1,0,40.77v2.92a23.3,23.3,0,1,0,0-46.6Z" transform="translate(-11.92 -10.52)" style="fill:#f83f5a"/><path d="M1216.35,75.1h-.41V71.35h.41a20,20,0,1,0,0-39.94h-.41V27.66h.41a23.72,23.72,0,1,1,0,47.44Zm.42-2.92v2.08a22.88,22.88,0,0,0,0-45.76v2.08a20.8,20.8,0,0,1,0,41.6Z" transform="translate(-11.92 -10.52)" style="fill:#f83f5a"/><path d="M1257.62,58.24V42.77l-6.76-1.7a32.34,32.34,0,0,0-2.32-5.61l3.59-6-10.94-10.94-6,3.59a31.67,31.67,0,0,0-5.62-2.32l-1.7-6.78h-15.46l-1.88,7.52,2.6.65,1.35-5.49h11.29l1.57,6.24a30.14,30.14,0,0,1,7.88,3.27l5.52-3.32,8,8-3.32,5.52a29.4,29.4,0,0,1,3.27,7.88l6.24,1.56V56.13l-6.24,1.57a31.13,31.13,0,0,1-3.27,7.89l3.32,5.52-8,8-5.52-3.31a29.28,29.28,0,0,1-7.88,3.26l-1.57,6.24H1214.5l-1.37-5.49-2.6.66,1.88,7.51h15.48l1.7-6.76a31.67,31.67,0,0,0,5.62-2.32l6,3.59,10.94-10.94-3.59-6a32.34,32.34,0,0,0,2.32-5.61Z" transform="translate(-11.92 -10.52)" style="fill:#f83f5a"/><path d="M1228.19,88.34h-16.08l-2-8.17,3.34-.84,1.39,5.57h10.69l1.55-6.16.46-.14a28,28,0,0,0,7.55-3.15l.19-.12,5.46,3.28,7.57-7.56L1245,65.58l.13-.2a31.39,31.39,0,0,0,3.22-7.78l.06-.22,6.17-1.55V45.14l-6.21-1.54,0-.26a29.49,29.49,0,0,0-3.21-7.73l-.13-.2,3.29-5.46-7.57-7.57-5.45,3.28-.2-.11a29.46,29.46,0,0,0-7.79-3.23l-.22-.06-1.55-6.17H1214.8l-1.37,5.57-3.34-.84,2-8.17h16.06l1.72,6.86a31.56,31.56,0,0,1,5.29,2.18l6-3.64,11.36,11.37-3.63,6a33.23,33.23,0,0,1,2.18,5.28l6.84,1.72V58.54l-6.84,1.71a33,33,0,0,1-2.18,5.29l3.63,6L1241.25,83l-6-3.64a32.06,32.06,0,0,1-5.29,2.18Zm-15.48-.76h14.89l1.67-6.68.21-.07a31.54,31.54,0,0,0,5.55-2.29l.19-.1,5.91,3.55,10.52-10.52-3.55-5.9.1-.2a31.54,31.54,0,0,0,2.29-5.55l.06-.2,6.68-1.68V43.07l-6.68-1.68-.06-.21a32.18,32.18,0,0,0-2.29-5.55l-.1-.19,3.55-5.9L1241.13,19l-5.91,3.55-.19-.1a30.38,30.38,0,0,0-5.55-2.29l-.21-.07-1.67-6.69h-14.87L1211,20.27l1.85.46,1.33-5.4h11.89l1.58,6.3a30.79,30.79,0,0,1,7.57,3.14l5.58-3.35,8.41,8.41-3.35,5.57A31.3,31.3,0,0,1,1249,43l6.29,1.57V56.43L1249,58a32.19,32.19,0,0,1-3.13,7.57l3.35,5.57-8.41,8.42-5.58-3.36a28.92,28.92,0,0,1-7.53,3.12h0l-1.58,6.31H1214.2l-1.35-5.4-1.85.47Z" transform="translate(-11.92 -10.52)" style="fill:#f83f5a"/><path d="M75.58,12.65V88.16H61.48v-33H26v33H11.92V12.65H26V45.13H61.48V12.65Z" transform="translate(-11.92 -10.52)" style="fill:#fff"/><path d="M167,50.41a42.1,42.1,0,0,1-2.74,15.37A36.06,36.06,0,0,1,156.52,78a35.13,35.13,0,0,1-12.06,8.07,43.62,43.62,0,0,1-31.28,0A35.44,35.44,0,0,1,101.09,78a36.33,36.33,0,0,1-7.81-12.25,41.9,41.9,0,0,1-2.76-15.37A41.92,41.92,0,0,1,93.28,35a36.33,36.33,0,0,1,7.81-12.25,35.44,35.44,0,0,1,12.09-8.07,40.71,40.71,0,0,1,15.61-2.9,42.69,42.69,0,0,1,10.81,1.33,38.38,38.38,0,0,1,9.3,3.76,34.4,34.4,0,0,1,7.6,5.91,36.13,36.13,0,0,1,5.72,7.75,38.33,38.33,0,0,1,3.57,9.3A44.13,44.13,0,0,1,167,50.41Zm-14.36,0A34.74,34.74,0,0,0,151,39.26a24.11,24.11,0,0,0-4.75-8.39,20.53,20.53,0,0,0-7.5-5.27,27.94,27.94,0,0,0-19.89,0,20.61,20.61,0,0,0-7.52,5.27,23.55,23.55,0,0,0-4.78,8.39,34.47,34.47,0,0,0-1.67,11.15,34.45,34.45,0,0,0,1.67,11.14,23.24,23.24,0,0,0,4.78,8.36,20.68,20.68,0,0,0,7.52,5.25,27.94,27.94,0,0,0,19.89,0,20.6,20.6,0,0,0,7.5-5.25A23.79,23.79,0,0,0,151,61.55,34.72,34.72,0,0,0,152.66,50.41Z" transform="translate(-11.92 -10.52)" style="fill:#fff"/><path d="M232.19,24.19H209.43v64H195.38v-64H172.61V12.65h59.58Z" transform="translate(-11.92 -10.52)" style="fill:#fff"/><path d="M258.83,23.82V44.76h26.42V55.57H258.83V76.93h33.52V88.16H244.73V12.65h47.62V23.82Z" transform="translate(-11.92 -10.52)" style="fill:#fff"/><path d="M351.62,76.57V88.16H307.39V12.65h14.05V76.57Z" transform="translate(-11.92 -10.52)" style="fill:#fff"/><path d="M436.79,88.16H425.93a4.65,4.65,0,0,1-3-.91A5.75,5.75,0,0,1,421.23,85l-5.64-15.41H384.31L378.67,85a5,5,0,0,1-1.62,2.19,4.51,4.51,0,0,1-3,1h-11l29.71-75.51h14.31ZM412,59.65,402.8,34.53c-.46-1.11-.93-2.44-1.41-4s-1-3.18-1.47-5q-.68,2.67-1.4,5c-.49,1.55-1,2.9-1.41,4l-9.14,25Z" transform="translate(-11.92 -10.52)" style="fill:#fff"/><path d="M471.78,12.65a43.23,43.23,0,0,1,13.11,1.77,25.31,25.31,0,0,1,9.14,5A19.68,19.68,0,0,1,499.38,27a26.2,26.2,0,0,1,1.75,9.71,26.84,26.84,0,0,1-1.83,10.06,21.05,21.05,0,0,1-5.48,7.86,25.54,25.54,0,0,1-9.17,5.11,40.86,40.86,0,0,1-12.87,1.83h-10.5V88.16h-14V12.65Zm0,38a21.32,21.32,0,0,0,6.74-1,12.86,12.86,0,0,0,4.77-2.77,11.11,11.11,0,0,0,2.85-4.39,16.67,16.67,0,0,0,.94-5.77,15.15,15.15,0,0,0-.94-5.48,10.79,10.79,0,0,0-2.82-4.18,12.4,12.4,0,0,0-4.75-2.63,22.48,22.48,0,0,0-6.79-.92h-10.5v27.1Z" transform="translate(-11.92 -10.52)" style="fill:#fff"/><path d="M539,12.65a43.23,43.23,0,0,1,13.11,1.77,25.31,25.31,0,0,1,9.14,5A19.68,19.68,0,0,1,566.64,27a26.4,26.4,0,0,1,1.75,9.71,26.84,26.84,0,0,1-1.83,10.06,21.05,21.05,0,0,1-5.48,7.86,25.63,25.63,0,0,1-9.17,5.11A40.86,40.86,0,0,1,539,61.58h-10.5V88.16h-14V12.65Zm0,38a21.32,21.32,0,0,0,6.74-1,12.86,12.86,0,0,0,4.77-2.77,11.11,11.11,0,0,0,2.85-4.39,16.67,16.67,0,0,0,.94-5.77,15.15,15.15,0,0,0-.94-5.48,10.9,10.9,0,0,0-2.82-4.18,12.4,12.4,0,0,0-4.75-2.63,22.48,22.48,0,0,0-6.79-.92h-10.5v27.1Z" transform="translate(-11.92 -10.52)" style="fill:#fff"/><path d="M584,88.32a6.85,6.85,0,0,1-2.84,3.6,7.59,7.59,0,0,1-4,1.2h-5.48l30.49-78a6.75,6.75,0,0,1,6.59-4.54h5.53Z" transform="translate(-11.92 -10.52)" style="fill:#f83f5a;stroke:#f83f5a;stroke-miterlimit:10;stroke-width:0.086999997496605px"/><path d="M710.22,12.65V88.16H697.84V39.39c0-2,.11-4.06.31-6.32L675.33,75.94a5.25,5.25,0,0,1-5,3.08h-2a5.26,5.26,0,0,1-5-3.08l-23.08-43c.1,1.15.19,2.28.26,3.39s.1,2.15.1,3.09V88.16H628.34V12.65h10.6c.62,0,1.16,0,1.61,0a4.46,4.46,0,0,1,1.23.26,2.63,2.63,0,0,1,1,.68,5.91,5.91,0,0,1,.87,1.25l22.61,41.94c.59,1.11,1.14,2.26,1.64,3.44s1,2.41,1.49,3.66c.49-1.29,1-2.53,1.52-3.73s1.07-2.36,1.67-3.48l22.3-41.83a5.27,5.27,0,0,1,.88-1.25,3.09,3.09,0,0,1,1-.68A4.62,4.62,0,0,1,698,12.7c.45,0,1,0,1.62,0Z" transform="translate(-11.92 -10.52)" style="fill:#f83f5a;stroke:#f83f5a;stroke-miterlimit:10;stroke-width:0.086999997496605px"/><path d="M794.35,88.16H783.48a4.6,4.6,0,0,1-3-.91A5.77,5.77,0,0,1,778.78,85l-5.64-15.41H741.86L736.22,85a4.94,4.94,0,0,1-1.62,2.19,4.51,4.51,0,0,1-3,1h-11l29.72-75.51h14.3ZM769.54,59.65l-9.19-25.12c-.45-1.11-.92-2.44-1.41-4s-1-3.18-1.46-5c-.45,1.78-.93,3.44-1.41,5s-1,2.9-1.41,4l-9.14,25Z" transform="translate(-11.92 -10.52)" style="fill:#f83f5a;stroke:#f83f5a;stroke-miterlimit:10;stroke-width:0.086999997496605px"/><path d="M868.45,12.65V88.16h-7.21a6.22,6.22,0,0,1-2.79-.55,6.39,6.39,0,0,1-2.17-1.85L816.85,35.42q.31,3.45.32,6.37V88.16H804.79V12.65h7.36a11.56,11.56,0,0,1,1.54.08,3.52,3.52,0,0,1,1.15.31,3.9,3.9,0,0,1,1,.68,12.06,12.06,0,0,1,1,1.17l39.59,50.55q-.16-1.81-.27-3.6c-.07-1.18-.1-2.28-.1-3.29V12.65Z" transform="translate(-11.92 -10.52)" style="fill:#f83f5a;stroke:#f83f5a;stroke-miterlimit:10;stroke-width:0.086999997496605px"/><path d="M952.57,88.16H941.71a4.6,4.6,0,0,1-3-.91A5.68,5.68,0,0,1,937,85l-5.64-15.41H900.09L894.45,85a5,5,0,0,1-1.62,2.19,4.51,4.51,0,0,1-3,1h-11L908.6,12.65h14.31Zm-24.8-28.51-9.19-25.12c-.46-1.11-.92-2.44-1.41-4s-1-3.18-1.46-5q-.69,2.67-1.41,5c-.49,1.55-1,2.9-1.41,4l-9.14,25Z" transform="translate(-11.92 -10.52)" style="fill:#f83f5a;stroke:#f83f5a;stroke-miterlimit:10;stroke-width:0.086999997496605px"/><path d="M1023,50.3V80.85A40.09,40.09,0,0,1,1010.77,87a48.16,48.16,0,0,1-13.91,2,46.3,46.3,0,0,1-16.74-2.88,37.18,37.18,0,0,1-12.79-8,34.94,34.94,0,0,1-8.18-12.22,41,41,0,0,1-2.87-15.5,42.58,42.58,0,0,1,2.77-15.62,34.4,34.4,0,0,1,20.21-20.16,44.68,44.68,0,0,1,16.29-2.82,48.42,48.42,0,0,1,8.59.73,44.4,44.4,0,0,1,7.42,2,32.45,32.45,0,0,1,6.24,3.11,37.71,37.71,0,0,1,5.17,4l-4,6.37a3.88,3.88,0,0,1-2.46,1.86,4.38,4.38,0,0,1-3.29-.76l-3.45-2a22.15,22.15,0,0,0-3.83-1.73,33.35,33.35,0,0,0-4.76-1.2,35.19,35.19,0,0,0-6.08-.47A26.08,26.08,0,0,0,985,25.65,21.5,21.5,0,0,0,977.27,31a24.33,24.33,0,0,0-4.91,8.41,33.18,33.18,0,0,0-1.72,11A33.78,33.78,0,0,0,972.49,62a24.31,24.31,0,0,0,5.23,8.62A22.24,22.24,0,0,0,985.84,76a29,29,0,0,0,10.6,1.85,28.45,28.45,0,0,0,7.47-.89,36.63,36.63,0,0,0,6.42-2.4V60.85h-9.51a2.83,2.83,0,0,1-2.11-.76,2.49,2.49,0,0,1-.76-1.85V50.3Z" transform="translate(-11.92 -10.52)" style="fill:#f83f5a;stroke:#f83f5a;stroke-miterlimit:10;stroke-width:0.086999997496605px"/><path d="M1053.31,23.82V44.76h26.42V55.57h-26.42V76.93h33.52V88.16h-47.62V12.65h47.62V23.82Z" transform="translate(-11.92 -10.52)" style="fill:#f83f5a;stroke:#f83f5a;stroke-miterlimit:10;stroke-width:0.086999997496605px"/><path d="M1160.83,88.16h-12.69a5.57,5.57,0,0,1-5.22-2.82L1127,61.16a5.52,5.52,0,0,0-2-1.93,6.88,6.88,0,0,0-3.16-.57h-6v29.5h-14.05V12.65h23a48,48,0,0,1,13.19,1.59,25.12,25.12,0,0,1,9,4.47,17.5,17.5,0,0,1,5.2,6.86,22.69,22.69,0,0,1,1.67,8.8,23,23,0,0,1-1.12,7.21,20.86,20.86,0,0,1-3.24,6.16,21.7,21.7,0,0,1-5.22,4.86,26.48,26.48,0,0,1-7.08,3.29,13.08,13.08,0,0,1,4.6,4.38Zm-36.14-39.58a21.79,21.79,0,0,0,6.92-1,13.44,13.44,0,0,0,4.86-2.75,10.89,10.89,0,0,0,2.84-4.15,14.27,14.27,0,0,0,.94-5.27q0-5.75-3.78-8.83t-11.57-3.08h-9V48.58Z" transform="translate(-11.92 -10.52)" style="fill:#f83f5a;stroke:#f83f5a;stroke-miterlimit:10;stroke-width:0.086999997496605px"/></svg>