<svg width="270.08" height="82.65" xmlns="http://www.w3.org/2000/svg">
 <title>HAM-LOGO_web</title>

 <g>
  <title>background</title>
  <rect fill="none" id="canvas_background" height="84.65" width="272.08" y="-1" x="-1"/>
 </g>
 <g>
  <title>Layer 1</title>
  <path id="svg_1" fill="#333" d="m76.28,4.65l0,75.51l-13.8,0l0,-33l-35.48,0l0,33l-14.08,0l0,-75.51l14.08,0l0,32.48l35.48,0l0,-32.48l13.8,0z"/>
  <path id="svg_2" fill="#333" d="m163.79,80.16l-10.86,0a4.65,4.65 0 0 1 -3,-0.91a5.75,5.75 0 0 1 -1.7,-2.25l-5.64,-15.41l-31.28,0l-5.64,15.41a5,5 0 0 1 -1.62,2.19a4.51,4.51 0 0 1 -3,1l-11,0l29.71,-75.51l14.31,0l29.72,75.48zm-24.79,-28.51l-9.2,-25.12c-0.46,-1.11 -0.93,-2.44 -1.41,-4s-1,-3.18 -1.47,-5q-0.68,2.67 -1.4,5c-0.49,1.55 -1,2.9 -1.41,4l-9.14,25l24.03,0.12z"/>
  <path id="svg_3" fill="#f83f5a" stroke="#f83f5a" stroke-miterlimit="10" stroke-width="0.087px" d="m257.22,3.65l0,75.51l-12.38,0l0,-48.77c0,-2 0.11,-4.06 0.31,-6.32l-22.82,42.87a5.25,5.25 0 0 1 -5,3.08l-2,0a5.26,5.26 0 0 1 -5,-3.08l-23.08,-43c0.1,1.15 0.19,2.28 0.26,3.39s0.1,2.15 0.1,3.09l0,48.74l-12.27,0l0,-75.51l10.6,0c0.62,0 1.16,0 1.61,0a4.46,4.46 0 0 1 1.23,0.26a2.63,2.63 0 0 1 1,0.68a5.91,5.91 0 0 1 0.87,1.25l22.61,41.94c0.59,1.11 1.14,2.26 1.64,3.44s1,2.41 1.49,3.66c0.49,-1.29 1,-2.53 1.52,-3.73s1.07,-2.36 1.67,-3.48l22.3,-41.83a5.27,5.27 0 0 1 0.88,-1.25a3.09,3.09 0 0 1 1,-0.68a4.62,4.62 0 0 1 1.24,-0.21c0.45,0 1,0 1.62,0l10.6,-0.05z"/>
 </g>
</svg>
