<?xml version="1.0" encoding="utf-8"?>
<!-- Generator: Adobe Illustrator 23.0.3, SVG Export Plug-In . SVG Version: 6.00 Build 0)  -->
<svg version="1.1" id="Ebene_1" xmlns="http://www.w3.org/2000/svg" xmlns:xlink="http://www.w3.org/1999/xlink" x="0px" y="0px"
	 viewBox="0 0 1300 229.9" style="enable-background:new 0 0 1300 229.9;" xml:space="preserve">
<style type="text/css">
	.st0{fill:#BB163A;}
	.st1{display:none;fill:#BB163A;}
	.st2{font-family:'HindMadurai-Regular';}
	.st3{font-size:90px;}
</style>
<title>ts-wordbildmarke-2018-final-web</title>
<path class="st0" d="M249.2,126.7v-11.1h80.1v11.1h-32.8v100.7h-14.8V126.7H249.2z"/>
<path class="st0" d="M335.9,187.6c-0.1-6.3,1-12.5,3.2-18.4c1.9-4.8,4.8-9.2,8.5-12.8c3.4-3.3,7.5-5.9,11.9-7.6
	c4.3-1.6,8.9-2.4,13.5-2.5c5.4-0.1,10.8,1,15.7,3.2c4.5,2,8.5,5,11.7,8.8c3.3,3.8,5.7,8.3,7.2,13.1c1.7,5.2,2.5,10.7,2.5,16.2
	c0.1,6.1-0.9,12.1-3,17.8c-1.8,4.8-4.5,9.3-8.1,13c-3.3,3.5-7.4,6.2-11.8,7.9c-4.5,1.8-9.3,2.7-14.1,2.7c-4.9,0-9.8-0.9-14.5-2.7
	c-4.5-1.8-8.5-4.5-11.8-7.9c-3.5-3.7-6.2-8.2-7.9-13C336.8,199.7,335.8,193.7,335.9,187.6z M351.1,187.6c0,4.1,0.4,8.3,1.5,12.3
	c0.8,3.4,2.3,6.6,4.2,9.5c1.8,2.6,4.1,4.7,6.8,6.2c6,3,13.1,3,19-0.2c2.8-1.6,5.1-3.8,6.8-6.5c1.9-3,3.2-6.2,4-9.7
	c0.9-3.8,1.3-7.8,1.3-11.7c0.1-4.5-0.5-9-1.8-13.4c-1-3.4-2.6-6.6-4.8-9.4c-6.6-8.4-18.9-9.9-27.3-3.3c-1.2,1-2.3,2.1-3.3,3.3
	c-2.2,2.8-3.8,6-4.8,9.4C351.6,178.6,351,183.1,351.1,187.6z"/>
<path class="st0" d="M440.6,205.8c-0.1,3.1,0.6,6.1,2.2,8.8c1.5,2.3,3.9,3.4,7.1,3.4c1.1,0,2.1-0.1,3.1-0.4c0.9-0.3,2-0.5,3.5-0.9
	c2.7-0.7,5.6-0.8,8.3-0.2c2.7,0.7,5.2,2.2,7.1,4.3c-4.3,2.7-8.9,4.9-13.8,6.5c-3.2,1-6.4,1.5-9.8,1.6c-2.9,0-5.8-0.4-8.6-1.1
	c-2.7-0.8-5.1-2.2-7.1-4.1c-2.2-2.1-3.8-4.7-4.8-7.6c-1.3-3.8-1.9-7.9-1.8-11.9v-56.3h14.5V205.8z M482.1,227.4
	c-2.2-2.3-3.9-5.2-4.8-8.2c-0.8-2.8-1.2-5.8-1.1-8.7v-62.6h14.3v60.1c0,3.1,0.2,6.1,0.5,9.1c0.4,3.5,1,6.9,1.9,10.2L482.1,227.4z"/>
<path class="st0" d="M525.4,147.9c1.5,1.6,2.7,3.5,3.5,5.6c0.7,2.2,1.3,4.4,1.8,6.7v2.8l1.2-2.8c2-3.9,5-7.2,8.6-9.6
	c3.5-2.4,7.6-3.8,11.8-3.8c2.6,0.1,5.1,0.5,7.5,1.2l-1.8,12c-1.4-0.4-2.8-0.6-4.2-0.8c-1.2-0.1-2.2-0.1-3.2-0.1
	c-2.4,0-4.8,0.5-7.1,1.5c-2.4,1-4.6,2.6-6.3,4.5c-2,2.3-3.6,5.1-4.5,8c-1.3,3.8-1.8,7.8-1.7,11.9v42.4h-13.7v-52.6
	c0-4.7-0.2-9.5-0.6-14.3c-0.3-4.2-0.9-8.5-1.8-12.6L525.4,147.9z"/>
<path class="st0" d="M573,125c-0.1-2.5,0.9-4.9,2.6-6.6c3.7-3.6,9.5-3.6,13.2,0c1.7,1.8,2.7,4.2,2.6,6.6c0.1,2.5-0.9,4.8-2.6,6.6
	c-3.7,3.5-9.5,3.5-13.2,0C573.8,129.8,572.9,127.4,573,125z M574.8,227.4v-79.5h14.8v79.5L574.8,227.4z"/>
<path class="st0" d="M609.5,212.4c7,3.5,14.7,5.4,22.6,5.5c4.6,0,8-1.1,10.3-3.2c2.3-2.2,3.5-5.2,3.4-8.3c0.1-2.6-0.9-5.1-2.8-6.9
	c-2-2-4.4-3.7-6.9-5c-2.8-1.5-5.7-2.9-8.9-4.4c-3.1-1.4-6.1-3.1-8.9-5.1c-2.7-1.9-5.1-4.4-6.9-7.2c-2-3.2-2.9-6.9-2.8-10.7
	c0-2.5,0.6-5.1,1.6-7.4c1.1-2.5,2.7-4.8,4.7-6.6c2.2-2.1,4.8-3.7,7.7-4.8c3.4-1.3,7-1.9,10.6-1.9c3.2,0,6.5,0.3,9.7,0.9
	c4,0.7,7.9,1.8,11.7,3.2l-3.5,10.1c-2.9-1-5.9-1.8-9-2.4c-2.4-0.4-4.9-0.7-7.3-0.7c-3.1-0.1-6.2,0.7-8.8,2.5
	c-2.3,1.7-3.6,4.4-3.5,7.2c-0.1,2.6,0.9,5.1,2.8,6.8c2.1,2,4.4,3.6,6.9,4.9c2.8,1.5,5.7,3,8.9,4.5c3.1,1.5,6.1,3.2,8.9,5.2
	c2.8,2,5.1,4.5,6.9,7.5c1.9,3.4,2.9,7.2,2.8,11.1c0,2.9-0.7,5.8-2.1,8.4c-1.4,2.7-3.4,5-5.7,6.9c-2.5,2-5.2,3.6-8.2,4.8
	c-3.1,1.2-6.4,1.8-9.7,1.8c-4.2,0-8.4-0.4-12.5-1c-4.5-0.7-9.7-2.5-15.6-5.5L609.5,212.4z"/>
<path class="st0" d="M684.6,147.9c2.2,2.3,3.9,5.2,4.8,8.2c0.8,2.8,1.2,5.8,1.2,8.7v62.6h-14.8v-60.1c0-3.1-0.2-6.1-0.5-9.1
	c-0.4-3.4-1-6.8-1.8-10.2L684.6,147.9z M725.3,169.6c0.1-3.1-0.6-6.1-2.2-8.8c-1.5-2.2-4-3.5-6.7-3.4c-1.1,0-2.2,0.1-3.2,0.3
	l-3.4,0.8c-2.7,0.7-5.5,0.8-8.2,0.1c-2.7-0.7-5.1-2.2-6.9-4.3c4.3-2.7,8.9-4.8,13.7-6.4c3.1-1,6.4-1.5,9.7-1.6
	c2.9,0,5.7,0.4,8.5,1.1c2.6,0.8,5,2.1,7,4.1c2.1,2.2,3.8,4.8,4.8,7.7c1.3,3.8,1.9,7.8,1.8,11.8v56.3h-14.8V169.6z M774.7,169.6
	c0.1-3.1-0.7-6.1-2.3-8.8c-1.5-2.3-3.9-3.4-7.2-3.4c-1.1,0-2.3,0.1-3.4,0.4c-1,0.3-2.3,0.5-3.7,0.9c-2.7,0.7-5.6,0.8-8.3,0.1
	c-2.7-0.7-5.2-2.2-7.1-4.3c4.4-2.8,9.1-5,14.1-6.5c3.2-1,6.6-1.5,9.9-1.6c2.9,0,5.9,0.4,8.7,1.1c2.7,0.8,5.2,2.2,7.2,4.1
	c2.2,2.1,3.9,4.8,5,7.7c1.3,3.8,2,7.8,1.8,11.8v56.3h-14.8V169.6z"/>
<path class="st0" d="M825.2,205.8c-0.1,3.1,0.6,6.1,2.2,8.8c1.5,2.3,3.9,3.4,7.2,3.4c1.1,0,2.1-0.1,3.2-0.4c0.9-0.3,2-0.5,3.5-0.9
	c2.7-0.7,5.6-0.8,8.3-0.2c2.7,0.7,5.2,2.2,7.1,4.3c-4.3,2.7-8.9,4.9-13.8,6.5c-3.2,1-6.4,1.5-9.8,1.6c-2.9,0-5.8-0.4-8.6-1.1
	c-2.7-0.8-5.1-2.2-7.1-4.1c-2.2-2.1-3.8-4.7-4.8-7.6c-1.3-3.8-1.9-7.9-1.8-11.9v-56.3h14.5L825.2,205.8z M866.8,227.4
	c-2.2-2.3-3.9-5.2-4.8-8.2c-0.8-2.8-1.2-5.8-1.2-8.7v-62.6h14.3v60.1c0,3.1,0.2,6.1,0.5,9.1c0.4,3.5,1,6.9,1.9,10.2L866.8,227.4z"/>
<path class="st0" d="M897.8,212.4c7,3.5,14.7,5.4,22.6,5.5c4.6,0,8-1.1,10.3-3.2c2.3-2.2,3.5-5.2,3.4-8.3c0.1-2.6-0.9-5.1-2.8-6.9
	c-2-2-4.4-3.7-6.9-5c-2.8-1.5-5.7-2.9-8.9-4.4c-3.1-1.4-6.1-3.1-8.9-5.1c-2.7-1.9-5.1-4.4-6.9-7.2c-2-3.2-2.9-6.9-2.8-10.7
	c0-2.5,0.6-5.1,1.6-7.4c1.1-2.5,2.7-4.8,4.7-6.6c2.2-2.1,4.8-3.7,7.7-4.8c3.4-1.3,7-1.9,10.6-1.9c3.2,0,6.5,0.3,9.7,0.9
	c4,0.7,7.9,1.8,11.7,3.2l-3.5,10.1c-2.9-1-5.9-1.8-9-2.4c-2.4-0.4-4.9-0.7-7.3-0.7c-3.1-0.1-6.2,0.7-8.8,2.5
	c-2.3,1.7-3.6,4.4-3.5,7.2c-0.1,2.6,0.9,5.1,2.8,6.8c2.1,2,4.4,3.6,6.9,4.9c2.8,1.5,5.7,3,8.9,4.5c3.1,1.5,6.1,3.2,8.9,5.2
	c2.8,2,5.1,4.5,6.9,7.5c1.9,3.4,2.9,7.2,2.8,11.1c0,2.9-0.7,5.8-2.1,8.4c-1.4,2.7-3.4,5-5.7,6.9c-2.5,2-5.2,3.6-8.2,4.8
	c-3.1,1.2-6.4,1.8-9.7,1.8c-4.2,0-8.4-0.4-12.5-1c-4.5-0.7-9.7-2.5-15.6-5.5L897.8,212.4z"/>
<path class="st0" d="M994.2,124.8c-2.6,0-5.2,0.4-7.6,1.3c-2.1,0.8-4,2.1-5.6,3.7c-1.5,1.5-2.7,3.3-3.5,5.3c-0.8,2-1.2,4.2-1.2,6.4
	c-0.1,3.8,1.3,7.4,3.8,10.2c2.8,3,6.1,5.7,9.7,7.8c3.9,2.4,8.1,4.7,12.5,7c4.4,2.3,8.6,4.9,12.5,7.9c3.8,2.9,7.1,6.4,9.7,10.5
	c2.6,4,3.8,8.9,3.8,14.8c0,3.8-0.8,7.6-2.4,11.1c-1.6,3.7-4.1,6.9-7.1,9.5c-3.4,2.9-7.2,5.2-11.4,6.6c-5,1.7-10.2,2.6-15.5,2.5
	c-2.2,0-4.6-0.1-7.2-0.4c-2.7-0.3-5.4-0.6-8.2-1.1c-2.9-0.5-5.7-1.3-8.5-2.1c-2.8-0.9-5.5-2-8.2-3.2l4-10c4.5,2,9.1,3.5,13.9,4.4
	c4.1,0.9,8.2,1.3,12.4,1.4c7.3,0,12.9-1.8,16.9-5.4c3.9-3.4,6.1-8.3,6-13.4c0.1-4-1.2-7.9-3.8-11c-2.8-3.1-6-5.8-9.5-7.9
	c-4-2.5-8.2-4.8-12.5-6.8c-4.4-2.1-8.5-4.6-12.5-7.5c-3.7-2.8-7-6.2-9.5-10.1c-2.6-3.9-3.9-8.7-3.8-14.4c0-7.5,3.1-14.6,8.6-19.6
	c2.9-2.6,6.2-4.7,9.8-6c4-1.5,8.3-2.2,12.6-2.2c4.5,0,8.9,0.3,13.3,1c4.9,0.8,9.8,2,14.5,3.5l-4.2,9.9c-4-1.2-8.1-2.1-12.2-2.7
	C1000.9,125.1,997.5,124.9,994.2,124.8z"/>
<path class="st0" d="M1060,205.8c-0.1,3.1,0.6,6.1,2.2,8.8c1.5,2.3,3.9,3.4,7.2,3.4c1.1,0,2.1-0.1,3.2-0.4c0.9-0.3,2-0.5,3.5-0.9
	c2.7-0.7,5.6-0.8,8.3-0.2c2.7,0.7,5.2,2.2,7.1,4.3c-4.3,2.7-8.9,4.9-13.8,6.5c-3.2,1-6.4,1.5-9.8,1.6c-2.9,0-5.8-0.4-8.6-1.1
	c-2.7-0.8-5.1-2.2-7.1-4.1c-2.2-2.1-3.8-4.7-4.8-7.6c-1.3-3.8-1.9-7.9-1.8-11.9v-56.3h14.5V205.8z M1101.5,227.4
	c-2.2-2.3-3.9-5.2-4.8-8.2c-0.8-2.8-1.2-5.8-1.2-8.7v-62.6h14.3v60.1c0,3.1,0.2,6.1,0.5,9.1c0.4,3.5,1,6.9,1.9,10.2L1101.5,227.4z"
	/>
<path class="st0" d="M1133.8,125c-0.1-2.5,0.9-4.9,2.6-6.6c3.7-3.6,9.5-3.6,13.2,0c1.7,1.8,2.7,4.2,2.6,6.6c0.1,2.5-0.9,4.8-2.6,6.6
	c-3.7,3.4-9.5,3.4-13.2,0C1134.7,129.8,1133.7,127.4,1133.8,125z M1135.7,227.4v-79.5h14.8v79.5L1135.7,227.4z"/>
<path class="st0" d="M1176.9,158.6h-14.2v-6.9l14.2-3.7v-20.3l13.5-4.3v76.4c0,5.3,1.1,9.8,3.4,13.3s5.3,5.3,9.1,5.3
	c2,0,3.9-0.2,5.8-0.5c2.3-0.5,4.5-1.1,6.8-1.8l3.4,9.7c-3,1.1-6,2-9.1,2.7c-2.3,0.5-4.6,0.7-6.9,0.7c-8.4,0-14.8-2.7-19.3-8.1
	c-4.5-5.4-6.7-13.1-6.7-22.9L1176.9,158.6z M1208.9,158.6c-3.6,0-6.4-1-8.4-3.1c-2.1-2.1-3.6-4.7-4.5-7.5h21.7v10.6H1208.9z"/>
<path class="st0" d="M1286.2,178.7c0.3-2.8,0.1-5.6-0.6-8.3c-0.7-2.4-1.8-4.7-3.3-6.8c-1.4-1.9-3.3-3.5-5.5-4.5
	c-2.1-1.1-4.5-1.6-6.9-1.6c-6.2-0.1-12.1,2.7-15.8,7.7c-4.1,5.1-6.1,12.5-6.1,22c-0.1,4.2,0.6,8.5,1.8,12.5c1.1,3.5,2.9,6.8,5.2,9.7
	c2.1,2.6,4.8,4.8,7.8,6.3c3,1.5,6.3,2.3,9.7,2.2c3.4,0,6.8-0.3,10.1-1.1c3.9-1,7.7-2.5,11.3-4.5l3.8,10.1c-4.5,2.4-9.3,4.1-14.3,5.1
	c-4.1,0.8-8.3,1.3-12.4,1.3c-5.3,0.1-10.5-1-15.4-3.1c-4.5-2-8.5-5-11.8-8.8c-3.3-3.9-5.9-8.4-7.5-13.3c-1.8-5.4-2.7-11.1-2.6-16.8
	c-0.1-5.7,0.8-11.4,2.6-16.8c1.6-4.7,4.2-9.1,7.5-12.8c3.3-3.6,7.3-6.3,11.8-8.1c5-2,10.3-2.9,15.7-2.8c9.7-0.2,18.7,4.8,23.8,13
	c2.5,4.1,4.1,8.8,4.5,13.6c0.5,5.4,0,10.8-1.6,16h-44.6c1-2.8,2.6-5.3,4.6-7.4c1.9-1.9,4.8-2.9,8.4-2.9L1286.2,178.7z"/>
<path class="st0" d="M78,82.3c-0.8-1.2-0.9-2.7-0.3-4.1c0,0,0.1-0.2,0.6-1.4s0.6-1.4,0.6-1.4c0.5-1.3,1.6-2.4,3.1-2.7l10-1.7
	c1.3-0.3,2.4-1.4,2.5-2.8v-8.6c-0.2-1.4-1.2-2.5-2.5-2.8l-10-1.7c-1.4-0.3-2.6-1.3-3.1-2.6l-1.2-2.8c-0.6-1.3-0.4-2.9,0.3-4.1
	l5.8-8.2c0.7-1.2,0.7-2.7-0.2-3.8l-6.1-6.1c-1.1-0.9-2.6-0.9-3.7-0.2l-8.3,5.9c-1.2,0.8-2.7,0.9-4.1,0.3c0,0-0.2-0.1-1.4-0.6
	s-1.4-0.6-1.4-0.6c-1.3-0.5-2.4-1.6-2.7-3l-1.7-10c-0.3-1.3-1.4-2.3-2.8-2.5h-8.6c-1.4,0.2-2.5,1.2-2.8,2.5l-1.7,10
	C38,30.8,37,32,35.6,32.5l-2.8,1.2c-1.3,0.6-2.9,0.4-4.1-0.3l-8.2-5.8c-1.2-0.8-2.7-0.7-3.8,0.2l-6.1,6.1c-0.9,1.1-0.9,2.6-0.2,3.7
	l5.9,8.3c0.8,1.2,0.9,2.7,0.3,4c0,0-0.1,0.2-0.6,1.4c-0.5,1.2-0.6,1.4-0.6,1.4c-0.5,1.3-1.6,2.4-3,2.7l-10,1.7
	c-1.3,0.3-2.3,1.4-2.5,2.8v8.6c0.2,1.4,1.2,2.5,2.5,2.8l10,1.7c1.4,0.3,2.6,1.3,3.1,2.6l1.2,2.8c0.6,1.3,0.4,2.9-0.3,4.1l-5.8,8.2
	c-0.7,1.2-0.7,2.7,0.2,3.8l6.1,6.1c1.1,0.9,2.6,0.9,3.7,0.2l8.3-5.9c1.2-0.8,2.7-0.9,4-0.3c0,0,0.2,0.1,1.4,0.6s1.4,0.6,1.4,0.6
	c1.3,0.5,2.4,1.6,2.7,3.1l1.7,10c0.3,1.3,1.4,2.3,2.7,2.4h8.6c1.4-0.2,2.5-1.2,2.8-2.5l1.7-10c0.3-1.4,1.3-2.6,2.6-3.2l2.8-1.2
	c1.3-0.6,2.9-0.4,4.1,0.3l8.2,5.8c1.2,0.8,2.7,0.7,3.8-0.2l6.1-6.1c0.9-1.1,0.9-2.6,0.2-3.7L78,82.3z M40.4,80.6
	C31,76.8,26.5,66,30.4,56.7s14.5-13.8,23.9-10s13.8,14.5,10,23.9c0,0,0,0,0,0C60.4,80,49.7,84.4,40.4,80.6z"/>
<path class="st0" d="M196.3,163.6c-1.9-1.4-3.1-3.6-3-6c0,0,0-0.4,0-2.5s0-2.5,0-2.5c-0.1-2.4,1.1-4.6,3-6l14.1-8.9
	c1.9-1.3,2.7-3.6,2.1-5.8l-5.4-13.1c-1.1-2-3.4-3-5.6-2.6l-16.2,3.7c-2.4,0.4-4.8-0.4-6.4-2.1l-3.6-3.6c-1.7-1.7-2.5-4.1-2.1-6.5
	l3.7-16.2c0.4-2.3-0.7-4.5-2.6-5.6L161,80.3c-2.2-0.6-4.5,0.2-5.8,2.1l-8.9,14.1c-1.4,1.9-3.6,3.1-6,3c0,0-0.3,0-2.5,0s-2.5,0-2.5,0
	c-2.4,0.1-4.6-1.1-6-3l-8.9-14.1c-1.3-1.9-3.6-2.7-5.8-2.1l-13.2,5.4c-2,1.1-3,3.4-2.6,5.6l3.7,16.2c0.4,2.4-0.4,4.8-2.1,6.5
	l-3.6,3.5c-1.7,1.7-4.1,2.5-6.4,2.1L74.2,116c-2.2-0.4-4.5,0.6-5.6,2.6l-5.4,13.1c-0.6,2.2,0.2,4.5,2.1,5.8l14.1,8.9
	c1.9,1.4,3.1,3.6,3,6c0,0,0,0.4,0,2.5s0,2.5,0,2.5c0.1,2.4-1.1,4.6-3,6l-14.2,8.9c-1.9,1.3-2.7,3.6-2.1,5.8l5.4,13.1
	c1.1,2,3.4,3.1,5.6,2.6l16.2-3.7c2.4-0.4,4.8,0.4,6.4,2.1l3.6,3.6c1.7,1.7,2.5,4.1,2.1,6.5l-3.7,16.2c-0.4,2.2,0.6,4.5,2.6,5.6
	l13.2,5.4c2.2,0.6,4.5-0.2,5.8-2.1l8.9-14.1c1.4-1.9,3.6-3.1,6-3c0,0,0.3,0,2.5,0s2.5,0,2.5,0c2.4-0.1,4.6,1.1,6,3l8.9,14.1
	c1.3,1.9,3.6,2.7,5.8,2.1l13.1-5.4c2-1.1,3.1-3.4,2.6-5.6l-3.7-16.2c-0.4-2.4,0.4-4.8,2.1-6.5l3.6-3.6c1.7-1.7,4.1-2.5,6.4-2.1
	l16.2,3.7c2.2,0.4,4.5-0.6,5.6-2.6l5.4-13.1c0.6-2.2-0.2-4.5-2.1-5.8L196.3,163.6z M137.8,195.5c-22.7,0-41.1-18.5-41.1-41.2
	c0-22.7,18.5-41.1,41.2-41.1c22.7,0,41.1,18.4,41.1,41.1C179,177.1,160.6,195.5,137.8,195.5C137.8,195.5,137.8,195.5,137.8,195.5z"
	/>
<text transform="matrix(1 0 0 1 244.1693 63.63)" class="st1 st2 st3">powered by</text>
<g>
	<path class="st0" d="M256.2,81.4h-7V18h7v6.9c3.2-5.1,7.9-7.6,14.1-7.6c6.1,0,10.8,2.2,14.3,6.6c3.4,4.4,5.2,9.9,5.2,16.5
		c0,7-1.8,12.8-5.4,17.2c-3.6,4.5-8.4,6.7-14.2,6.7c-6,0-10.7-2.5-14-7.7V81.4z M256.2,40.9c0,5.8,1.4,10.1,4.1,12.9
		c2.7,2.8,5.7,4.1,9,4.1c3.8,0,7-1.5,9.4-4.5c2.5-3,3.7-7.3,3.7-12.9c0-5-1.2-9-3.6-12.1c-2.4-3.1-5.4-4.6-9.1-4.6
		c-3.7,0-6.8,1.3-9.5,4C257.5,30.4,256.2,34.8,256.2,40.9z"/>
	<path class="st0" d="M341.2,40.9c0,6.8-1.9,12.4-5.8,16.8c-3.8,4.4-9.1,6.7-15.8,6.7c-6.5,0-11.7-2.2-15.5-6.6
		c-3.8-4.4-5.7-10-5.7-16.7c0-6.8,2-12.4,5.9-17c3.9-4.5,9-6.8,15.3-6.8c6.9,0,12.2,2.2,16,6.7C339.4,28.5,341.2,34.1,341.2,40.9z
		 M305.8,41c0,4.7,1.3,8.8,3.8,12.1s5.9,5,10.1,5c4.6,0,8.1-1.6,10.5-4.9c2.5-3.3,3.7-7.3,3.7-12.2c0-5-1.2-9.2-3.5-12.5
		c-2.3-3.3-5.9-4.9-10.7-4.9c-4.3,0-7.7,1.7-10.2,5C307,32.1,305.8,36.2,305.8,41z"/>
	<path class="st0" d="M371,63.6h-8.7l-14-45.6h7.6l4.4,15.1c1.6,5.3,2.9,9.9,3.9,13.8c1,3.9,1.7,6.6,2,7.9l0.4,1.9
		c0.9-3.8,3.1-11.7,6.6-23.7l4.3-15h7.6l4.4,15l6.8,23.8c0.8-3.5,3.1-11.5,6.9-23.8l4.6-15h7.3l-14.4,45.6h-8.7l-4.3-14.9l-6.3-22.8
		c-0.9,3.8-2.9,11.4-6.1,22.8L371,63.6z"/>
	<path class="st0" d="M458,61.3c-3.5,1.9-7.9,2.8-13,2.8c-6.9,0-12.5-2.1-16.7-6.3s-6.3-9.8-6.3-16.8c0-7.3,1.9-13,5.7-17.2
		c3.8-4.2,8.6-6.3,14.6-6.3c5.7,0,10.2,1.8,13.6,5.5c3.4,3.7,5,8.9,5,15.6c0,1.9-0.2,3.7-0.5,5.3h-31.1c0.5,4.5,2.2,8,5.1,10.3
		c2.9,2.4,6.7,3.6,11.3,3.6c5.1,0,9.2-1,12.2-3.1V61.3z M442.3,23.7c-3.4,0-6.3,1.2-8.7,3.7c-2.4,2.5-3.8,6-4.2,10.5h24.5v-1.8
		c0-3.8-1-6.8-3.1-9C448.7,24.8,445.9,23.7,442.3,23.7z"/>
	<path class="st0" d="M479.6,63.6h-7.1l0.1-45.6h7v8c2.4-5.6,6.5-8.5,12.4-8.5c1.1,0,1.9,0.1,2.5,0.2v7c-1.3-0.4-2.6-0.6-3.9-0.6
		c-3.2,0-5.8,1.5-7.9,4.4c-2.1,2.9-3.2,6.3-3.2,10.2V63.6z"/>
	<path class="st0" d="M536.2,61.3c-3.5,1.9-7.9,2.8-13,2.8c-6.9,0-12.5-2.1-16.7-6.3s-6.3-9.8-6.3-16.8c0-7.3,1.9-13,5.7-17.2
		c3.8-4.2,8.6-6.3,14.6-6.3c5.7,0,10.2,1.8,13.6,5.5c3.4,3.7,5,8.9,5,15.6c0,1.9-0.2,3.7-0.5,5.3h-31.1c0.5,4.5,2.2,8,5.1,10.3
		c2.9,2.4,6.7,3.6,11.3,3.6c5.1,0,9.2-1,12.2-3.1V61.3z M520.4,23.7c-3.4,0-6.3,1.2-8.7,3.7c-2.4,2.5-3.8,6-4.2,10.5h24.5v-1.8
		c0-3.8-1-6.8-3.1-9C526.8,24.8,524,23.7,520.4,23.7z"/>
	<path class="st0" d="M588.6,63.6h-7.1v-6.8c-3.2,5-7.9,7.5-14,7.5c-6.1,0-10.8-2.2-14.3-6.8c-3.5-4.5-5.2-10-5.2-16.4
		c0-7.1,1.8-12.9,5.5-17.3c3.7-4.4,8.4-6.6,14.1-6.6c5.9,0,10.6,2.6,13.9,7.6V0h7.1V63.6z M555.4,41.3c0,4.9,1.2,8.9,3.6,12
		c2.4,3.1,5.4,4.6,9.1,4.6c3.7,0,6.9-1.4,9.5-4.1c2.6-2.8,3.9-7.2,3.9-13.2c0-5.8-1.3-10-4-12.7c-2.7-2.7-5.7-4.1-8.9-4.1
		c-3.8,0-6.9,1.5-9.4,4.5C556.7,31.3,555.4,35.7,555.4,41.3z"/>
	<path class="st0" d="M632.9,63.6h-7.1V0h7.1v24.8c3.3-5,7.9-7.6,13.9-7.6c5.8,0,10.5,2.2,14.1,6.6c3.7,4.4,5.5,10.2,5.5,17.3
		c0,6.4-1.7,11.9-5.2,16.4c-3.5,4.5-8.2,6.8-14.3,6.8c-6.1,0-10.8-2.5-14-7.5V63.6z M632.9,40.5c0,6.1,1.3,10.5,3.9,13.2
		c2.6,2.8,5.8,4.1,9.5,4.1c3.7,0,6.7-1.5,9.1-4.6c2.4-3.1,3.6-7,3.6-12c0-5.6-1.2-10-3.7-13c-2.5-3-5.6-4.5-9.4-4.5
		c-3.2,0-6.2,1.4-8.9,4.1C634.3,30.5,632.9,34.7,632.9,40.5z"/>
	<path class="st0" d="M697.5,62.5c-2.3,6.2-5.1,10.5-8.3,13c-3.2,2.5-6.9,3.8-11,3.8c-1.6,0-2.8-0.2-3.8-0.5v-6.4
		c0.9,0.2,1.9,0.4,3.1,0.4c6.1,0,10.4-3.5,12.9-10.4L671.9,18h8l5.9,15l8,20.7c0.5-1.6,2.9-8.5,7.2-20.7l5.3-15h7.6L697.5,62.5z"/>
</g>
</svg>
