<?xml version="1.0" encoding="utf-8"?>
<!-- Generator: Adobe Illustrator 23.0.3, SVG Export Plug-In . SVG Version: 6.00 Build 0)  -->
<svg version="1.1" id="Ebene_1" xmlns="http://www.w3.org/2000/svg" xmlns:xlink="http://www.w3.org/1999/xlink" x="0px" y="0px"
	 viewBox="0 0 1246.1 82.7" style="enable-background:new 0 0 1246.1 82.7;" xml:space="preserve">
<style type="text/css">
	.st0{fill:#F83F5A;}
	.st1{fill:#353535;}
	.st2{fill:#F83F5A;stroke:#F83F5A;stroke-width:8.700000e-02;stroke-miterlimit:10;}
</style>
<title>HAM-LOGO_web</title>
<path class="st0" d="M1190.4,20.6h-3.3l-8.1,14l-8.1-14h-3.2c-4.9,0-8.9,4-8.9,8.9v17.7c0,4.4,3.2,8.1,7.6,8.8v21.6h25.3V56
	c4.4-0.6,7.6-4.4,7.6-8.8V29.5C1199.3,24.6,1195.3,20.6,1190.4,20.6z M1166.3,53.5c-2.9-0.6-5.1-3.2-5.1-6.2V29.5
	c0-1.2,0.4-2.4,1-3.4l4.1,11.2L1166.3,53.5z M1189.2,36.9v38.2h-8.9V61.2h-2.5v13.9h-8.9V36.9l-4.6-12.7c1.6-0.8,3.4-1.2,5.2-1
	l9.6,16.4l9.6-16.4c0,0,3.7-0.3,5.2,1L1189.2,36.9z M1196.7,47.3c0,3-2.1,5.6-5.1,6.2V37.3l4.1-11.2c0.7,1,1,2.2,1,3.4V47.3z"/>
<path class="st0" d="M1192.1,78h-26V56.3c-4.4-0.8-7.6-4.6-7.6-9.1V29.5c0-5.1,4.1-9.2,9.2-9.2h3.4l7.9,13.6l7.9-13.6h3.5
	c5.1,0,9.2,4.1,9.2,9.2v17.8c0,4.5-3.2,8.3-7.6,9.1L1192.1,78z M1166.8,77.3h24.6V55.7h0.3c4.2-0.6,7.3-4.2,7.3-8.4V29.5
	c0-4.7-3.8-8.5-8.5-8.5h-3l-8.3,14.3l-8.3-14.3h-3c-4.7-0.1-8.6,3.7-8.7,8.4c0,0,0,0.1,0,0.1v17.8c0,4.2,3.1,7.8,7.3,8.4h0.3
	L1166.8,77.3z M1189.5,75.5h-9.6v-14h-1.8v14h-9.6V36.9l-4.7-12.9l0.2-0.2c1.7-0.9,3.5-1.2,5.4-1h0.2l9.4,16.1l9.4-16.1h0.2
	c0.2,0,3.9-0.3,5.4,1.1l0.2,0.2l-4.7,12.9L1189.5,75.5z M1180.6,74.7h8.2v-38l4.5-12.5c-1.2-0.8-3.8-0.8-4.5-0.8l-9.8,16.8
	l-9.8-16.8c-1.5-0.1-3.1,0.1-4.5,0.8l4.5,12.6v37.9h8.1V60.8h3.3V74.7z M1191.3,53.9V37.2l4.3-11.9l0.4,0.6c0.7,1,1.1,2.3,1.1,3.5
	v17.8c0,3.2-2.2,5.9-5.4,6.6L1191.3,53.9z M1192,37.4V53c2.6-0.7,4.3-3.1,4.3-5.7V29.5c0-0.9-0.2-1.7-0.6-2.5L1192,37.4z
	 M1166.7,53.9l-0.4-0.1c-3.1-0.6-5.4-3.4-5.3-6.5V29.5c0-1.3,0.4-2.5,1.1-3.6l0.4-0.6l4.3,12V53.9z M1162.2,27
	c-0.4,0.8-0.5,1.6-0.6,2.5v17.7c0,2.7,1.8,5,4.3,5.7V37.4L1162.2,27z"/>
<path class="st0" d="M1179.1,2.3c-4.9,0-8.9,4-8.9,8.9c0,4.9,4,8.9,8.9,8.9c4.9,0,8.9-4,8.9-8.9C1188,6.3,1184,2.3,1179.1,2.3
	C1179.1,2.3,1179.1,2.3,1179.1,2.3z M1179.1,17.9c-3.7,0-6.7-3-6.7-6.7s3-6.7,6.7-6.7s6.7,3,6.7,6.7c0,0,0,0,0,0
	C1185.8,14.9,1182.8,17.9,1179.1,17.9z"/>
<path class="st0" d="M1179.1,20.5c-5.1,0-9.2-4.1-9.2-9.2c0-5.1,4.1-9.2,9.2-9.2l0,0c5.1-0.2,9.4,3.8,9.5,8.9
	c0.2,5.1-3.8,9.4-8.9,9.5C1179.5,20.5,1179.3,20.5,1179.1,20.5z M1179.1,2.7c-4.7,0-8.6,3.8-8.6,8.6c0,4.7,3.8,8.6,8.6,8.6
	c4.7,0,8.6-3.8,8.6-8.6C1187.7,6.6,1183.9,2.7,1179.1,2.7C1179.1,2.7,1179.1,2.7,1179.1,2.7L1179.1,2.7L1179.1,2.7z M1179.1,18.3
	c-3.9,0-7-3.1-7-7s3.1-7,7-7s7,3.1,7,7C1186.1,15.1,1182.9,18.2,1179.1,18.3L1179.1,18.3z M1179.1,4.9c-3.5,0-6.4,2.8-6.4,6.4
	s2.8,6.4,6.4,6.4s6.4-2.8,6.4-6.4c0,0,0,0,0,0C1185.5,7.7,1182.6,4.9,1179.1,4.9C1179.1,4.8,1179.1,4.8,1179.1,4.9L1179.1,4.9z"/>
<path class="st0" d="M1204.4,17.6v2.9c11.3-0.2,20.6,8.7,20.8,19.9s-8.7,20.6-19.9,20.8c-0.3,0-0.6,0-0.9,0v2.9
	c12.9,0,23.3-10.4,23.3-23.3S1217.3,17.6,1204.4,17.6L1204.4,17.6z"/>
<path class="st0" d="M1204.4,64.6h-0.4v-3.8h0.4c11,0.6,20.5-7.8,21.1-18.9s-7.8-20.5-18.9-21.1c-0.7,0-1.5,0-2.2,0h-0.4v-3.8h0.4
	c13.1,0,23.7,10.6,23.7,23.7S1217.5,64.6,1204.4,64.6L1204.4,64.6z M1204.8,61.7v2.1c12.6,0,22.9-10.2,22.9-22.9
	c0-12.6-10.2-22.9-22.9-22.9v2.1c11.5,0,20.8,9.3,20.8,20.8C1225.6,52.3,1216.3,61.7,1204.8,61.7z"/>
<path class="st0" d="M1245.7,47.7V32.2l-6.8-1.7c-0.6-1.9-1.4-3.8-2.3-5.6l3.6-6L1229.3,8l-6,3.6c-1.8-1-3.7-1.7-5.6-2.3l-1.7-6.8
	h-15.5l-1.9,7.5l2.6,0.6l1.3-5.5h11.3l1.6,6.2c2.8,0.7,5.4,1.8,7.9,3.3l5.5-3.3l8,8l-3.3,5.5c1.5,2.5,2.6,5.1,3.3,7.9l6.2,1.6v11.3
	l-6.2,1.6c-0.7,2.8-1.8,5.4-3.3,7.9l3.3,5.5l-8,8l-5.5-3.3c-2.5,1.5-5.1,2.6-7.9,3.3l-1.6,6.2h-11.3l-1.4-5.5l-2.6,0.7l1.9,7.5h15.5
	l1.7-6.8c1.9-0.6,3.8-1.4,5.6-2.3l6,3.6l10.9-10.9l-3.6-6c0.9-1.8,1.7-3.7,2.3-5.6L1245.7,47.7z"/>
<path class="st0" d="M1216.3,77.8h-16.1l-2-8.2l3.3-0.8l1.4,5.6h10.7l1.6-6.2l0.5-0.1c2.7-0.7,5.2-1.7,7.6-3.2l0.2-0.1l5.5,3.3
	l7.6-7.6l-3.3-5.5l0.1-0.2c1.4-2.4,2.5-5.1,3.2-7.8l0.1-0.2l6.2-1.5V34.6l-6.2-1.5v-0.3c-0.7-2.7-1.8-5.3-3.2-7.7l-0.1-0.2l3.3-5.5
	l-7.6-7.6l-5.4,3.3l-0.2-0.1c-2.4-1.4-5.1-2.5-7.8-3.2l-0.2-0.1l-1.6-6.2h-10.7l-1.4,5.6l-3.3-0.8l2-8.2h16.1L1218,9
	c1.8,0.6,3.6,1.3,5.3,2.2l6-3.6l11.4,11.4l-3.6,6c0.9,1.7,1.6,3.5,2.2,5.3l6.8,1.7V48l-6.8,1.7c-0.6,1.8-1.3,3.6-2.2,5.3l3.6,6
	l-11.3,11.5l-6-3.6c-1.7,0.9-3.5,1.6-5.3,2.2L1216.3,77.8z M1200.8,77.1h14.9l1.7-6.7l0.2-0.1c1.9-0.6,3.8-1.4,5.6-2.3l0.2-0.1
	l5.9,3.6l10.5-10.5l-3.6-5.9l0.1-0.2c0.9-1.8,1.7-3.6,2.3-5.5l0.1-0.2l6.7-1.7V32.5l-6.7-1.7l-0.1-0.2c-0.6-1.9-1.4-3.8-2.3-5.5
	l-0.1-0.2l3.6-5.9l-10.5-10.5l-5.9,3.5l-0.2-0.1c-1.8-0.9-3.6-1.7-5.6-2.3l-0.2-0.1l-1.7-6.7h-14.9l-1.7,6.9l1.8,0.5l1.3-5.4h11.9
	l1.6,6.3c2.7,0.7,5.2,1.8,7.6,3.1l5.6-3.4l8.4,8.4l-3.3,5.6c1.4,2.4,2.4,4.9,3.1,7.6l6.3,1.6v11.9l-6.3,1.6
	c-0.7,2.6-1.8,5.2-3.1,7.6l3.3,5.6l-8.4,8.4l-5.6-3.4c-2.4,1.4-4.9,2.4-7.5,3.1l0,0l-1.6,6.3h-11.9l-1.3-5.4l-1.8,0.5L1200.8,77.1z"
	/>
<path class="st1" d="M63.7,2.1v75.5H49.6v-33H14.1v33H0V2.1h14.1v32.5h35.5V2.1H63.7z"/>
<path class="st1" d="M155.1,39.9c0.1,5.2-0.9,10.5-2.7,15.4c-1.7,4.6-4.4,8.7-7.7,12.2c-3.4,3.5-7.5,6.2-12.1,8.1
	c-10.1,3.9-21.2,3.9-31.3,0c-4.5-1.8-8.7-4.6-12.1-8.1c-3.4-3.5-6.1-7.7-7.8-12.3c-1.9-4.9-2.8-10.1-2.8-15.4
	c-0.1-5.3,0.9-10.5,2.8-15.4c1.8-4.6,4.4-8.7,7.8-12.2c3.4-3.5,7.5-6.2,12.1-8.1c5-2,10.3-3,15.6-2.9c3.6,0,7.3,0.4,10.8,1.3
	c3.3,0.8,6.4,2.1,9.3,3.8c2.8,1.6,5.4,3.6,7.6,5.9c2.2,2.3,4.2,4.9,5.7,7.7c1.6,2.9,2.8,6.1,3.6,9.3
	C154.7,32.8,155.1,36.3,155.1,39.9z M140.7,39.9c0.1-3.8-0.5-7.5-1.6-11.2c-1-3.1-2.6-5.9-4.8-8.4c-2.1-2.3-4.6-4.1-7.5-5.3
	c-6.4-2.4-13.5-2.4-19.9,0c-2.9,1.2-5.4,3-7.5,5.3c-2.2,2.4-3.8,5.3-4.8,8.4c-1.2,3.6-1.7,7.4-1.7,11.1c-0.1,3.8,0.5,7.5,1.7,11.1
	c1,3.1,2.6,5.9,4.8,8.4c2.1,2.3,4.7,4.1,7.5,5.3c6.4,2.4,13.5,2.4,19.9,0c2.9-1.2,5.4-3,7.5-5.3c2.1-2.4,3.8-5.3,4.8-8.4
	C140.2,47.4,140.8,43.7,140.7,39.9L140.7,39.9z"/>
<path class="st1" d="M220.3,13.7h-22.8v64h-14v-64h-22.8V2.1h59.6V13.7z"/>
<path class="st1" d="M246.9,13.3v20.9h26.4V45h-26.4v21.4h33.5v11.2h-47.6V2.1h47.6v11.2H246.9z"/>
<path class="st1" d="M339.7,66v11.6h-44.2V2.1h14V66H339.7z"/>
<path class="st1" d="M424.9,77.6H414c-1.1,0.1-2.1-0.3-3-0.9c-0.7-0.6-1.3-1.4-1.7-2.2l-5.6-15.4h-31.3l-5.6,15.4
	c-0.3,0.9-0.9,1.6-1.6,2.2c-0.8,0.7-1.9,1-3,1h-11l29.7-75.5h14.3L424.9,77.6z M400.1,49.1L390.9,24c-0.5-1.1-0.9-2.4-1.4-4
	s-1-3.2-1.5-5c-0.5,1.8-0.9,3.4-1.4,5c-0.5,1.5-1,2.9-1.4,4L376,49L400.1,49.1z"/>
<path class="st1" d="M459.9,2.1c4.4-0.1,8.9,0.5,13.1,1.8c3.4,1,6.5,2.7,9.1,5c2.4,2.1,4.2,4.7,5.4,7.6c1.2,3.1,1.8,6.4,1.8,9.7
	c0,3.4-0.6,6.9-1.8,10.1c-1.2,3-3.1,5.7-5.5,7.9c-2.7,2.3-5.8,4.1-9.2,5.1c-4.2,1.3-8.5,1.9-12.9,1.8h-10.5v26.6h-14V2.1H459.9z
	 M459.9,40.1c2.3,0,4.6-0.3,6.7-1c1.8-0.6,3.4-1.5,4.8-2.8c1.3-1.2,2.3-2.7,2.9-4.4c0.7-1.9,1-3.8,0.9-5.8c0-1.9-0.3-3.7-0.9-5.5
	c-0.6-1.6-1.6-3-2.8-4.2c-1.4-1.2-3-2.1-4.8-2.6c-2.2-0.7-4.5-1-6.8-0.9h-10.5v27.1L459.9,40.1z"/>
<path class="st1" d="M527.1,2.1c4.4-0.1,8.9,0.5,13.1,1.8c3.4,1,6.5,2.7,9.1,5c2.4,2.1,4.2,4.7,5.4,7.6c1.2,3.1,1.8,6.4,1.8,9.7
	c0,3.4-0.6,6.9-1.8,10.1c-1.2,3-3.1,5.7-5.5,7.9c-2.7,2.3-5.8,4.1-9.2,5.1c-4.2,1.3-8.5,1.9-12.9,1.8h-10.5v26.6h-14V2.1H527.1z
	 M527.1,40.1c2.3,0,4.6-0.3,6.7-1c1.8-0.6,3.4-1.5,4.8-2.8c1.3-1.2,2.3-2.7,2.8-4.4c0.7-1.9,1-3.8,0.9-5.8c0-1.9-0.3-3.7-0.9-5.5
	c-0.6-1.6-1.6-3-2.8-4.2c-1.4-1.2-3-2.1-4.8-2.6c-2.2-0.7-4.5-1-6.8-0.9h-10.5v27.1L527.1,40.1z"/>
<path class="st2" d="M572.1,77.8c-0.5,1.5-1.5,2.8-2.8,3.6c-1.2,0.8-2.6,1.2-4,1.2h-5.5l30.5-78c1-2.8,3.6-4.6,6.6-4.5h5.5
	L572.1,77.8z"/>
<path class="st2" d="M698.3,2.1v75.5h-12.4V28.9c0-2,0.1-4.1,0.3-6.3l-22.8,42.9c-0.9,1.9-2.9,3.2-5,3.1h-2c-2.1,0.1-4.1-1.1-5-3.1
	l-23.1-43c0.1,1.2,0.2,2.3,0.3,3.4s0.1,2.2,0.1,3.1v48.7h-12.3V2.1H627c0.6,0,1.2,0,1.6,0c0.4,0,0.8,0.1,1.2,0.3
	c0.4,0.1,0.7,0.4,1,0.7c0.3,0.4,0.6,0.8,0.9,1.2l22.6,41.9c0.6,1.1,1.1,2.3,1.6,3.4s1,2.4,1.5,3.7c0.5-1.3,1-2.5,1.5-3.7
	s1.1-2.4,1.7-3.5L683,4.3c0.2-0.5,0.5-0.9,0.9-1.2c0.3-0.3,0.6-0.5,1-0.7c0.4-0.1,0.8-0.2,1.2-0.2c0.5,0,1,0,1.6,0L698.3,2.1z"/>
<path class="st2" d="M782.4,77.6h-10.9c-1.1,0.1-2.1-0.3-3-0.9c-0.7-0.6-1.3-1.4-1.7-2.2l-5.6-15.4h-31.3l-5.6,15.4
	c-0.3,0.9-0.9,1.6-1.6,2.2c-0.8,0.7-1.9,1-3,1h-11l29.7-75.5h14.3L782.4,77.6z M757.6,49.1L748.4,24c-0.5-1.1-0.9-2.4-1.4-4
	s-1-3.2-1.5-5c-0.5,1.8-0.9,3.4-1.4,5c-0.5,1.6-1,2.9-1.4,4l-9.1,25L757.6,49.1z"/>
<path class="st2" d="M856.5,2.1v75.5h-7.2c-1,0-1.9-0.2-2.8-0.6c-0.9-0.4-1.6-1.1-2.2-1.8l-39.4-50.3c0.2,2.3,0.3,4.4,0.3,6.4v46.4
	h-12.4V2.1h7.4c0.5,0,1,0,1.5,0.1c0.4,0,0.8,0.1,1.2,0.3c0.4,0.2,0.7,0.4,1,0.7c0.4,0.4,0.7,0.8,1,1.2l39.6,50.6
	c-0.1-1.2-0.2-2.4-0.3-3.6c-0.1-1.2-0.1-2.3-0.1-3.3V2.1H856.5z"/>
<path class="st2" d="M940.7,77.6h-10.9c-1.1,0.1-2.1-0.3-3-0.9c-0.8-0.6-1.3-1.4-1.7-2.2l-5.6-15.4h-31.3l-5.6,15.4
	c-0.3,0.9-0.9,1.6-1.6,2.2c-0.8,0.7-1.9,1-3,1h-11l29.8-75.5H911L940.7,77.6z M915.9,49.1L906.7,24c-0.5-1.1-0.9-2.4-1.4-4
	s-1-3.2-1.5-5c-0.5,1.8-0.9,3.4-1.4,5c-0.5,1.5-1,2.9-1.4,4l-9.1,25L915.9,49.1z"/>
<path class="st2" d="M1011.1,39.8v30.6c-3.7,2.7-7.8,4.8-12.2,6.2c-4.5,1.3-9.2,2-13.9,2c-5.7,0.1-11.4-0.9-16.7-2.9
	c-4.8-1.8-9.1-4.5-12.8-8c-3.6-3.4-6.4-7.6-8.2-12.2c-2-4.9-2.9-10.2-2.9-15.5c-0.1-5.3,0.9-10.6,2.8-15.6
	c3.5-9.3,10.9-16.7,20.2-20.2c5.2-1.9,10.7-2.9,16.3-2.8c2.9,0,5.8,0.2,8.6,0.7c2.5,0.5,5,1.1,7.4,2c2.2,0.8,4.3,1.9,6.2,3.1
	c1.8,1.2,3.6,2.5,5.2,4l-4,6.4c-0.5,0.9-1.4,1.6-2.5,1.9c-1.2,0.2-2.3-0.1-3.3-0.8l-3.5-2c-1.2-0.7-2.5-1.3-3.8-1.7
	c-1.6-0.5-3.1-0.9-4.8-1.2c-2-0.3-4-0.5-6.1-0.5c-3.5,0-6.9,0.6-10.1,1.9c-2.9,1.2-5.6,3-7.7,5.3c-2.2,2.4-3.9,5.3-4.9,8.4
	c-1.2,3.5-1.8,7.3-1.7,11c-0.1,3.9,0.6,7.9,1.8,11.6c1.1,3.2,2.9,6.1,5.2,8.6c2.3,2.4,5,4.2,8.1,5.4c3.4,1.3,7,1.9,10.6,1.8
	c2.5,0,5-0.3,7.5-0.9c2.2-0.6,4.4-1.4,6.4-2.4V50.3h-9.5c-0.8,0-1.5-0.2-2.1-0.8c-0.5-0.5-0.8-1.2-0.8-1.8v-7.9H1011.1z"/>
<path class="st2" d="M1041.4,13.3v20.9h26.4V45h-26.4v21.4h33.5v11.2h-47.6V2.1h47.6v11.2H1041.4z"/>
<path class="st2" d="M1148.9,77.6h-12.7c-2.1,0.1-4.2-1-5.2-2.8l-15.9-24.2c-0.5-0.8-1.2-1.5-2-1.9c-1-0.4-2.1-0.6-3.2-0.6h-6v29.5
	h-14.1V2.1h23c4.4-0.1,8.9,0.5,13.2,1.6c3.3,0.9,6.3,2.4,9,4.5c2.3,1.8,4.1,4.2,5.2,6.9c1.1,2.8,1.7,5.8,1.7,8.8
	c0,2.4-0.4,4.9-1.1,7.2c-0.7,2.2-1.8,4.3-3.2,6.2c-1.5,1.9-3.2,3.5-5.2,4.9c-2.2,1.4-4.6,2.5-7.1,3.3c1.9,1.1,3.4,2.6,4.6,4.4
	L1148.9,77.6z M1112.8,38.1c2.3,0,4.7-0.3,6.9-1c1.8-0.6,3.5-1.5,4.9-2.8c1.3-1.1,2.2-2.6,2.8-4.2c0.6-1.7,1-3.5,0.9-5.3
	c0-3.8-1.3-6.8-3.8-8.8s-6.4-3.1-11.6-3.1h-9v25.1H1112.8z"/>
</svg>
