<?xml version="1.0" encoding="utf-8"?>
<!-- Generator: Adobe Illustrator 23.0.3, SVG Export Plug-In . SVG Version: 6.00 Build 0)  -->
<!DOCTYPE svg PUBLIC "-//W3C//DTD SVG 1.1//EN" "http://www.w3.org/Graphics/SVG/1.1/DTD/svg11.dtd" [
	<!ENTITY ns_extend "http://ns.adobe.com/Extensibility/1.0/">
	<!ENTITY ns_ai "http://ns.adobe.com/AdobeIllustrator/10.0/">
	<!ENTITY ns_graphs "http://ns.adobe.com/Graphs/1.0/">
	<!ENTITY ns_vars "http://ns.adobe.com/Variables/1.0/">
	<!ENTITY ns_imrep "http://ns.adobe.com/ImageReplacement/1.0/">
	<!ENTITY ns_sfw "http://ns.adobe.com/SaveForWeb/1.0/">
	<!ENTITY ns_custom "http://ns.adobe.com/GenericCustomNamespace/1.0/">
	<!ENTITY ns_adobe_xpath "http://ns.adobe.com/XPath/1.0/">
]>
<svg version="1.1" id="Capa_1" xmlns:x="&ns_extend;" xmlns:i="&ns_ai;" xmlns:graph="&ns_graphs;"
	 xmlns="http://www.w3.org/2000/svg" xmlns:xlink="http://www.w3.org/1999/xlink" x="0px" y="0px" viewBox="0 0 31 22"
	 style="enable-background:new 0 0 31 22;" xml:space="preserve">
<metadata>
	<sfw  xmlns="&ns_sfw;">
		<slices></slices>
		<sliceSourceBounds  bottomLeftOrigin="true" height="22" width="31" x="0" y="4.5"></sliceSourceBounds>
	</sfw>
</metadata>
<g>
	<path d="M28.5,22h-26C1.1,22,0,20.9,0,19.5v-17C0,1.1,1.1,0,2.5,0h26C29.9,0,31,1.1,31,2.5v17C31,20.9,29.9,22,28.5,22z M2.5,1
		C1.7,1,1,1.7,1,2.5v17C1,20.4,1.7,21,2.5,21h26c0.8,0,1.5-0.7,1.5-1.5v-17C30,1.7,29.3,1,28.5,1H2.5z"/>
	<path d="M15.5,13.5c-0.7,0-1.3-0.2-1.8-0.7L0.9,1.7C0.7,1.6,0.7,1.2,0.8,1C1,0.8,1.3,0.8,1.5,1l12.8,11.1c0.6,0.6,1.7,0.6,2.4,0
		L29.5,1c0.2-0.2,0.5-0.2,0.7,0c0.2,0.2,0.2,0.5,0,0.7L17.3,12.9C16.8,13.3,16.2,13.5,15.5,13.5z"/>
</g>
</svg>
